<svg width="29" height="24" viewBox="0 0 29 24" fill="none" xmlns="http://www.w3.org/2000/svg">
<path d="M10.6967 2.33898C10.6967 3.63077 9.41963 4.67797 7.84426 4.67797C6.26889 4.67797 4.9918 3.63077 4.9918 2.33898C4.9918 1.0472 6.26889 0 7.84426 0C9.41963 0 10.6967 1.0472 10.6967 2.33898Z" fill="#FF9370"/>
<path d="M24.0082 2.33898C24.0082 3.63077 22.7311 4.67797 21.1557 4.67797C19.5804 4.67797 18.3033 3.63077 18.3033 2.33898C18.3033 1.0472 19.5804 0 21.1557 0C22.7311 0 24.0082 1.0472 24.0082 2.33898Z" fill="#FF9370"/>
<path d="M14.5 7.32203H29V11.5932H14.5V7.32203Z" fill="#FF9370"/>
<path d="M29 11.5932C29 14.8837 27.4723 18.0394 24.753 20.3661C22.0338 22.6929 18.3456 24 14.5 24C10.6544 24 6.96623 22.6929 4.24695 20.3661C1.52768 18.0394 5.80675e-07 14.8837 0 11.5932H5.02852C5.02852 13.7426 6.02641 15.8039 7.80265 17.3237C9.5789 18.8436 11.988 19.6974 14.5 19.6974C17.012 19.6974 19.4211 18.8436 21.1973 17.3237C22.9736 15.8039 23.9715 13.7426 23.9715 11.5932H29Z" fill="#FF9370"/>
</svg>
